<svg xmlns="http://www.w3.org/2000/svg" xmlns:xlink="http://www.w3.org/1999/xlink" viewBox="0 0 2501.01 2501.01"><defs><style>.cls-1,.cls-2{stroke:#000;stroke-miterlimit:10;}.cls-1{fill:url(#linear-gradient);}.cls-2,.cls-3{fill:#fff;}</style><linearGradient id="linear-gradient" x1="2192.26" y1="2700.69" x2="308.75" y2="-199.68" gradientUnits="userSpaceOnUse"><stop offset="0" stop-color="#7928ca"/><stop offset="1" stop-color="#ff0080"/></linearGradient></defs><g id="Layer_2" data-name="Layer 2"><rect class="cls-1" x="0.5" y="0.5" width="2500.01" height="2500.01"/></g><g id="Layer_1" data-name="Layer 1"><g id="arbirtum_logo" data-name="arbirtum logo"><g id="arbitrum"><path class="cls-2" d="M507.17,1617.24l427.09-656s70.08-86.11,277.76-57.76L669.36,1773.81,580.72,1722s-70.93-40.51-73.55-104.72h0" transform="translate(0.5 0.5)"/><polygon class="cls-2" points="728.01 1807.85 1293.51 901.92 1526.72 903.42 933.63 1926.57 728.01 1807.85"/><path id="Path_85" data-name="Path 85" class="cls-3" d="M1894.29,1482c.12-4.58.35-9.14.35-13.71q0-277.6.18-555.19a57.75,57.75,0,0,0-31.54-54.87q-291.49-167.1-582.57-335a54.08,54.08,0,0,0-58.76-.16q-161.65,94-323.7,187.41-130,75.27-260,150.57a54.17,54.17,0,0,0-29.14,51.06q.67,266.37.76,532.74c0,3.95-1.6,8.35,1.85,11.84-20.53,34.17-43.08,67-64.7,100.46q-16.23,25.13-32.61,50.15c-1.74,2.67-3.76,5.13-7.21,9.89-.25-5.59-.52-8.68-.52-11.76q0-351.27.12-702.54a141.54,141.54,0,0,1,74-127.48c75.36-44.75,151.71-87.83,227.57-131.78q96-55.6,191.76-111.54c59.65-34.64,118.7-70.31,179.37-103.07A148.5,148.5,0,0,1,1330.56,433c48.75,27.66,97.29,55.83,145.9,83.77q68.6,39.48,137.16,79,63.2,36.39,126.43,72.69,62.68,36,125.4,72c18.37,10.55,36.73,21.12,55,31.88a154.16,154.16,0,0,1,76.33,109.84,110.53,110.53,0,0,1,.8,19.92q0,345.64.09,691.32a148.44,148.44,0,0,1-53.39,114.84,178.21,178.21,0,0,1-30.79,18.87q-93.66,54.64-187.58,108.83-99.8,57.73-199.68,115.27-96,55.6-191.74,111.61a142.57,142.57,0,0,1-52.6,21.69,148.33,148.33,0,0,1-92.37-11.75c-31.84-17.07-62.86-35.6-94.25-53.58q-63.24-36.29-126.41-72.71-17.85-10.26-35.71-20.41c-4.38-2.49-7.37-5-4-10.72,15.75-26.39,31.26-52.93,46.94-79.37.55-1,2-1.42,3-2.12a367.25,367.25,0,0,1,42.34,23.28q103.19,59,206,118.61a48.61,48.61,0,0,0,52.83-.57c65.13-38.22,130.6-75.88,195.93-113.74,3.23-1.87,6.54-3.58,9.82-5.35a53.93,53.93,0,0,1,23.76-17.33c59-33.82,117.6-68.3,176.59-102,4.93-2.81,9.37-7.15,15.78-6.41l57.81-33.49c3.53-7.39,11.06-9.77,17.37-13.42,29.09-16.79,57.9-34.05,87.24-50.3a49.85,49.85,0,0,0,26.54-47.13c.3-29.43,0-58.88.15-88.32A21.63,21.63,0,0,1,1894.29,1482Z" transform="translate(0.5 0.5)"/><path id="Path_90" data-name="Path 90" class="cls-3" d="M1894.35,1482c.16,36.54,1,73.13.14,109.61a46.29,46.29,0,0,1-24.23,42c-36.79,20.84-72.92,42.85-110,63.12-14.77-26.94-31.82-52.6-48-78.77q-125.73-203.78-251.73-407.32c-5-8.13-9.63-16.57-15.25-24.26a12.27,12.27,0,0,1,0-15.69c20-33.53,39.77-67.26,59.61-100.94L1560,976.27a10.49,10.49,0,0,1,4.86-5.13c9.58,14.76,19.24,29.66,28.89,44.56q86.93,135.35,173.82,270.69l117.84,183.68A37.37,37.37,0,0,0,1894.35,1482Z" transform="translate(0.5 0.5)"/><path id="Path_91" data-name="Path 91" class="cls-3" d="M1702.4,1730.18c-23.92,15.7-49.3,29-74,43.61-44.71,26.29-89.7,52.09-134.57,78.08-2.56,1.45-5.13,2.81-7.6,4.21a21.22,21.22,0,0,0-5.13-11.17q-59.93-94.19-119.87-188.32-49.24-77.31-98.78-154.46a15.87,15.87,0,0,1-.87-19.25q66.21-111.51,131.87-223.35c1-1.72,1.87-3.72,4.45-4.27,3.59.81,4.46,4.4,6.17,7.08l238.62,375.89c16.92,26.67,33.77,53.41,50.79,80a39.52,39.52,0,0,0,8.85,11.94Z" transform="translate(0.5 0.5)"/></g></g></g></svg>