<svg xmlns="http://www.w3.org/2000/svg" xmlns:xlink="http://www.w3.org/1999/xlink" viewBox="0 0 2501.01 2501.01"><defs><style>.cls-1{stroke:#000;stroke-miterlimit:10;fill:url(#linear-gradient);}.cls-2{fill:#fff;fill-rule:evenodd;}</style><linearGradient id="linear-gradient" x1="2192.26" y1="2700.69" x2="308.75" y2="-199.68" gradientUnits="userSpaceOnUse"><stop offset="0" stop-color="#7928ca"/><stop offset="1" stop-color="#ff0080"/></linearGradient></defs><g id="Layer_2" data-name="Layer 2"><rect class="cls-1" x="0.5" y="0.5" width="2500.01" height="2500.01"/></g><g id="Layer_1" data-name="Layer 1"><path class="cls-2" d="M917.33,1780.13H682.16c-49.42,0-73.83,0-88.71-9.52a59.75,59.75,0,0,1-27.09-46.74c-.9-17.56,11.31-39,35.72-81.86l580.66-1023.5c24.71-43.46,37.21-65.19,53-73.23a59.93,59.93,0,0,1,54.18,0c15.78,8,28.28,29.77,53,73.23l119.37,208.38.61,1.06c26.68,46.63,40.22,70.27,46.12,95.09a176.69,176.69,0,0,1,0,82.75c-6,25-19.35,48.83-46.43,96.16l-305,539.16-.79,1.38c-26.86,47-40.48,70.84-59.34,88.82a177.55,177.55,0,0,1-72.34,42C1000.38,1780.13,972.7,1780.13,917.33,1780.13Zm593.88,0h337c49.71,0,74.72,0,89.61-9.81a59.55,59.55,0,0,0,27.09-47c.86-17-11.08-37.6-34.48-78l-2.43-4.2-168.8-288.75-1.92-3.25c-23.71-40.11-35.69-60.37-51.06-68.2a59.3,59.3,0,0,0-53.88,0c-15.48,8-28,29.18-52.69,71.75l-168.19,288.75-.58,1c-24.62,42.5-36.92,63.74-36,81.17a60.31,60.31,0,0,0,27.09,47C1436.49,1780.13,1461.49,1780.13,1511.21,1780.13Z" transform="translate(0.5 0.5)"/></g></svg>