<svg xmlns="http://www.w3.org/2000/svg" xmlns:xlink="http://www.w3.org/1999/xlink" viewBox="0 0 2501.01 2501.01"><defs><style>.cls-1{stroke:#000;stroke-miterlimit:10;fill:url(#linear-gradient);}.cls-2{fill:#fff;}</style><linearGradient id="linear-gradient" x1="2192.26" y1="2700.69" x2="308.75" y2="-199.68" gradientUnits="userSpaceOnUse"><stop offset="0" stop-color="#7928ca"/><stop offset="1" stop-color="#ff0080"/></linearGradient></defs><g id="Layer_2" data-name="Layer 2"><rect class="cls-1" x="0.5" y="0.5" width="2500.01" height="2500.01"/></g><g id="Layer_1" data-name="Layer 1"><g id="Layer_2-2" data-name="Layer 2"><g id="Layer_1-2" data-name="Layer 1-2"><path class="cls-2" d="M909.56,1110.13,1250,769.68l340.6,340.59,198.09-198.08L1250,373.51,711.49,912l198.08,198.08M373.51,1250l198.1-198.12L769.68,1250,571.59,1448.05Zm536.05,139.89L1250,1730.32l340.6-340.59,198.19,198-.1.11L1250,2126.49,711.49,1588l-.28-.28,198.37-197.82m820.74-139.79L1928.41,1052l198.08,198.08L1928.4,1448.16Z" transform="translate(0.5 0.5)"/><path class="cls-2" d="M1450.91,1249.89h.08l-201-201-148.56,148.52h0l-17.07,17.07-35.2,35.21-.28.27.28.29L1250,1451.11l201-201,.1-.12-.18-.1" transform="translate(0.5 0.5)"/></g></g></g></svg>