<svg id="Layer_1" data-name="Layer 1" xmlns="http://www.w3.org/2000/svg" xmlns:xlink="http://www.w3.org/1999/xlink" viewBox="0 0 2501.01 2501.01"><defs><style>.cls-1{stroke:#000;stroke-miterlimit:10;fill:url(#linear-gradient);}.cls-2{fill:#fff;}</style><linearGradient id="linear-gradient" x1="2192.26" y1="-198.69" x2="308.75" y2="2701.68" gradientTransform="matrix(1, 0, 0, -1, 0, 2502)" gradientUnits="userSpaceOnUse"><stop offset="0" stop-color="#7928ca"/><stop offset="1" stop-color="#ff0080"/></linearGradient></defs><g id="Layer_2" data-name="Layer 2"><rect class="cls-1" x="0.5" y="0.5" width="2500.01" height="2500.01"/></g><g id="Cronos"><path class="cls-2" d="M1170.7,458.86C1007.13,486.54,865.38,561.19,748.79,680.3,584.38,848.89,507.21,1088,544.12,1314.42c56.2,350.62,347.26,614,699.55,635,215.57,12.58,414.37-64.59,570.38-219.76,88.91-89.76,143.43-175.31,179.5-285.19,57-172.79,57-313.71,0-486.5-36.07-109.88-90.59-195.44-179.5-285.19-89.75-88.91-175.31-143.43-285.19-179.5C1406.4,453,1280.58,440.4,1170.7,458.86Zm370.74,380,180.34,104.85v498.24l-213.89,124.14L1294,1690.2l-25.16-15.1c-13.42-8.38-76.33-44.45-138.4-79.68C1068.37,1559.35,982,1509.86,940,1484.7l-78-45.3V946.19l68.78-40.26c38.59-22.64,135.89-78.84,216.41-125L1294,696.23l33.55,19.3C1346,725.59,1442.47,781.79,1541.44,838.83Z"/><path class="cls-2" d="M1144.7,931.1l-148.47,85.55V1369l144.27,83c78.85,46.13,147.63,83,153.5,83s74.65-36.91,153.5-83l144.27-83v-352.3l-123.3-71.29c-67.1-39.43-135-78-149.31-85.56l-26.84-14.26L1144.7,931.1Zm243.24,83c49.49,27.68,94,53.68,97.3,57.87,4.2,3.36-10.06,16.78-32.71,29.36l-39.42,23.49-60.39-32.72-59.56-31.87-56.2,31-56.2,31.87v139.24l56.2,31.87,56.2,31,59.56-31.88,60.39-32.71,39.42,23.49c22.65,12.58,36.91,26,32.71,29.35-3.35,4.2-47.81,30.2-99,58.72-87.24,49.49-93.11,52-113.24,40.26-11.74-6.71-57.88-33.55-103.17-59.55l-82.2-47.81,2.51-114.08,2.52-114.07,96.46-57c52.84-31,99-57,102.33-57,2.52-.84,46.14,22.65,96.46,51.17Z"/></g></svg>