<svg xmlns="http://www.w3.org/2000/svg" xmlns:xlink="http://www.w3.org/1999/xlink" viewBox="0 0 2501.01 2501.01"><defs><style>.cls-1{stroke:#000;stroke-miterlimit:10;fill:url(#linear-gradient);}.cls-2{fill:#fff;fill-rule:evenodd;}</style><linearGradient id="linear-gradient" x1="2192.26" y1="2700.69" x2="308.75" y2="-199.68" gradientUnits="userSpaceOnUse"><stop offset="0" stop-color="#7928ca"/><stop offset="1" stop-color="#ff0080"/></linearGradient></defs><g id="Layer_2" data-name="Layer 2"><rect class="cls-1" x="0.5" y="0.5" width="2500.01" height="2500.01"/></g><g id="Layer_1" data-name="Layer 1"><g id="Layer_2-2" data-name="Layer 2"><g id="Layer_1-2" data-name="Layer 1-2"><path class="cls-2" d="M1320.05,967.33l279.18-162.85v325.71Zm279.18,697.94L1227,1882.41,854.76,1665.27v-380L1227,1502.42l372.23-217.14ZM854.76,804.48l279.18,162.85L854.76,1130.19Zm418.76,240.4,279.18,162.85-279.18,162.86Zm-93,325.71L901.29,1207.73l279.18-162.85ZM1552.7,726.93,1227,913.05,901.29,726.93,1227,533.06Zm-791-31V1711.8L1227,1975.46l465.29-263.66V695.92L1227,432.25Z" transform="translate(0.5 0.5)"/></g></g></g></svg>