<svg xmlns="http://www.w3.org/2000/svg" xmlns:xlink="http://www.w3.org/1999/xlink" viewBox="0 0 2501.01 2501.01"><defs><style>.cls-1{stroke:#000;stroke-miterlimit:10;fill:url(#linear-gradient);}.cls-2{fill:#fff;}</style><linearGradient id="linear-gradient" x1="2192.26" y1="2700.69" x2="308.75" y2="-199.68" gradientUnits="userSpaceOnUse"><stop offset="0" stop-color="#7928ca"/><stop offset="1" stop-color="#ff0080"/></linearGradient></defs><g id="Layer_2" data-name="Layer 2"><rect class="cls-1" x="0.5" y="0.5" width="2500.01" height="2500.01"/></g><g id="Layer_1" data-name="Layer 1"><path id="Shape" class="cls-2" d="M1720.36,424.83c-196.77-.15-356.51,159.05-357,355.82v394.52c-36.77,2.48-74.36,4-113.33,4s-76.39,1.57-113.34,3.77V780.65C1133.5,583.5,971.12,426.25,774,429.41,581.28,432.51,425.82,588,422.73,780.65v942.91c3.17,197.15,165.55,354.4,362.7,351.24,192.69-3.09,348.15-158.55,351.24-351.24V1329c36.77-2.48,74.36-4,113.34-4s76.38-1.57,113.33-3.77v402.33c3.17,197.15,165.55,354.4,362.7,351.24,192.69-3.09,348.15-158.55,351.24-351.24V780.65C2076.77,583.92,1917.09,424.73,1720.36,424.83ZM779.65,570.62c116.13,0,210.38,93.91,210.68,210v417.77A1200.68,1200.68,0,0,0,687,1284.19a551.13,551.13,0,0,0-117.66,70.22V780.65C569.65,664.67,663.67,570.77,779.65,570.62ZM990.33,1723.56c0,116.35-94.23,210.72-210.58,210.77S569,1840.1,569,1723.74V1629c0-83.55,66.18-162.69,177.12-212a1038.24,1038.24,0,0,1,244.23-71.42v378Zm730,210c-116.13.06-210.38-93.91-210.68-210V1305.79A1201.08,1201.08,0,0,0,1813,1220a551.58,551.58,0,0,0,117.66-70.23v573.76c-.31,116-94.33,209.88-210.31,210Zm33.55-846.94a1038.71,1038.71,0,0,1-244.23,71.42V780.65c0-116.35,94.23-210.72,210.58-210.77S1931,664.11,1931,780.47v94.77C1931,958.42,1864.85,1037.57,1753.91,1086.65Z" transform="translate(0.5 0.5)"/></g></svg>