<svg xmlns="http://www.w3.org/2000/svg" xmlns:xlink="http://www.w3.org/1999/xlink" viewBox="0 0 2501.01 2501.01"><defs><style>.cls-1{stroke:#000;stroke-miterlimit:10;fill:url(#linear-gradient);}.cls-2{fill:#fff;}</style><linearGradient id="linear-gradient" x1="2192.26" y1="2700.69" x2="308.75" y2="-199.68" gradientUnits="userSpaceOnUse"><stop offset="0" stop-color="#7928ca"/><stop offset="1" stop-color="#ff0080"/></linearGradient></defs><g id="Layer_2" data-name="Layer 2"><rect class="cls-1" x="0.5" y="0.5" width="2500.01" height="2500.01"/></g><g id="Layer_3" data-name="Layer 3"><path class="cls-2" d="M441.31,848.47H563.42v707.09H441.31Zm56.6,292.27H875.36v128.38H497.91ZM796,848.47h122.1v707.09H796Z" transform="translate(0.5 0.5)"/><path class="cls-2" d="M1159.9,1530.51q-53.72-32.33-83.11-91.42t-29.41-136.9V1101.84q0-77.8,29.41-136.9t83.11-91.42q53.68-32.34,124.11-32.34t124.11,32.34q53.69,32.34,83.11,91.42t29.41,136.9v200.35q0,77.82-29.41,136.9t-83.11,91.42q-53.71,32.35-124.11,32.34T1159.9,1530.51Zm182-116.22q25-15.33,38.55-43.53t13.59-65.16V1098.43q0-36.95-13.59-65.16t-38.55-43.53q-25-15.32-57.93-15.32t-57.94,15.32q-25,15.32-38.54,43.53t-13.59,65.16V1305.6q0,37,13.59,65.16t38.54,43.53q25,15.32,57.94,15.31T1341.94,1414.29Z" transform="translate(0.5 0.5)"/><path class="cls-2" d="M1731.2,1530.51q-53.7-32.33-83.11-91.42t-29.41-136.9V1101.84q0-77.8,29.41-136.9t83.11-91.42q53.7-32.34,124.11-32.34t124.11,32.34q53.7,32.34,83.11,91.42t29.41,136.9v200.35q0,77.82-29.41,136.9t-83.11,91.42q-53.7,32.35-124.11,32.34T1731.2,1530.51Zm182-116.22q25-15.33,38.55-43.53t13.59-65.16V1098.43q0-36.95-13.59-65.16t-38.55-43.53q-25-15.32-57.93-15.32t-57.93,15.32q-25,15.32-38.55,43.53t-13.59,65.16V1305.6q0,37,13.59,65.16t38.55,43.53q24.94,15.32,57.93,15.31T1913.24,1414.29Z" transform="translate(0.5 0.5)"/></g></svg>