<svg xmlns="http://www.w3.org/2000/svg" xmlns:xlink="http://www.w3.org/1999/xlink" viewBox="0 0 2501.01 2501.01"><defs><style>.cls-1{stroke:#000;stroke-miterlimit:10;fill:url(#linear-gradient);}.cls-2{fill:#fff;}</style><linearGradient id="linear-gradient" x1="2192.26" y1="2700.69" x2="308.75" y2="-199.68" gradientUnits="userSpaceOnUse"><stop offset="0" stop-color="#7928ca"/><stop offset="1" stop-color="#ff0080"/></linearGradient></defs><g id="Layer_2" data-name="Layer 2"><rect class="cls-1" x="0.5" y="0.5" width="2500.01" height="2500.01"/></g><g id="Layer_1" data-name="Layer 1"><path class="cls-2" d="M1423.32,933.22c0-235.13-113.35-437.7-200.16-504,0,0-6-3.62-6,6-7.24,454.58-237.54,578.77-365.36,744-293,383.44-20.49,803.05,256.84,880.22,155.54,43.41-36.18-77.17-60.29-330.38-28.94-307.48,375-541.4,375-795.82" transform="translate(0.5 0.5)"/><path class="cls-2" d="M1575.25,1088.76c-1.21-1.2-3.62-1.2-6,0L1568,1090c-4.82,56.67-67.52,179.66-145.9,291.8-266.48,381-114.55,564.31-28.94,663.18,49.44,57.88,0,0,124.2-59.08,9.65-4.82,241.16-127.81,266.48-406.35,25.32-271.3-147.11-441.32-208.6-490.76" transform="translate(0.5 0.5)"/></g></svg>