<svg id="Layer_1" data-name="Layer 1" xmlns="http://www.w3.org/2000/svg" xmlns:xlink="http://www.w3.org/1999/xlink" viewBox="0 0 2501.01 2501.01"><defs><style>.cls-1{stroke:#000;stroke-miterlimit:10;fill:url(#linear-gradient);}.cls-2{fill:#fff;}</style><linearGradient id="linear-gradient" x1="2192.26" y1="-198.69" x2="308.75" y2="2701.68" gradientTransform="matrix(1, 0, 0, -1, 0, 2502)" gradientUnits="userSpaceOnUse"><stop offset="0" stop-color="#7928ca"/><stop offset="1" stop-color="#ff0080"/></linearGradient></defs><g id="Layer_2" data-name="Layer 2"><rect class="cls-1" x="0.5" y="0.5" width="2500.01" height="2500.01"/></g><g id="Milkomeda"><path class="cls-2" d="M2059.08,1017.42l126.46,218.93L1519.41,1621s-408,246.56-701.27-261.78l207.43-119.68s134.78,297.93,368.4,162.63S2059.08,1017.42,2059.08,1017.42Z"/><path class="cls-2" d="M512.91,1357.68,386.45,1138.75,1066.76,746s408-246.56,701.16,261.77L1560.5,1127.45s-134.79-297.93-368.41-162.63S512.91,1357.68,512.91,1357.68Z"/><path class="cls-2" d="M1298.83,1352.33a166.23,166.23,0,1,0-166.22-166.23A166.23,166.23,0,0,0,1298.83,1352.33Z"/><path class="cls-2" d="M711.91,1611.84A86.81,86.81,0,1,0,625.1,1525,86.81,86.81,0,0,0,711.91,1611.84Z"/><path class="cls-2" d="M1870.65,942.74a86.81,86.81,0,1,0-86.81-86.81A86.81,86.81,0,0,0,1870.65,942.74Z"/></g></svg>