<svg xmlns="http://www.w3.org/2000/svg" xmlns:xlink="http://www.w3.org/1999/xlink" viewBox="0 0 2501.01 2501.01"><defs><style>.cls-1{stroke:#000;stroke-miterlimit:10;fill:url(#linear-gradient);}.cls-2{fill:#fff;}</style><linearGradient id="linear-gradient" x1="2192.26" y1="2700.69" x2="308.75" y2="-199.68" gradientUnits="userSpaceOnUse"><stop offset="0" stop-color="#7928ca"/><stop offset="1" stop-color="#ff0080"/></linearGradient></defs><g id="Layer_2" data-name="Layer 2"><rect class="cls-1" x="0.5" y="0.5" width="2500.01" height="2500.01"/></g><g id="Layer_1" data-name="Layer 1"><g id="Path-raw"><circle id="Oval" class="cls-2" cx="1250.51" cy="825.33" r="351.86"/><circle id="Oval-Copy" class="cls-2" cx="1250.51" cy="1675.67" r="351.86"/><circle id="Oval-Copy-2" class="cls-2" cx="1675.67" cy="1250.5" r="351.86"/><circle id="Oval-Copy-3" class="cls-2" cx="825.34" cy="1250.5" r="351.86"/><path id="Combined-Shape" class="cls-2" d="M1167.17,1167.17A351.86,351.86,0,0,1,908.41,908.4,354.12,354.12,0,0,1,1167.17,1167.17Z" transform="translate(0.5 0.5)"/><path id="Combined-Shape-2" class="cls-2" d="M907.67,1592.33a351.88,351.88,0,0,1,258.77-258.76A354.13,354.13,0,0,1,907.67,1592.33Z" transform="translate(0.5 0.5)"/><path id="Combined-Shape-3" class="cls-2" d="M1332.84,1332.83A351.86,351.86,0,0,1,1591.6,1591.6,354.12,354.12,0,0,1,1332.84,1332.83Z" transform="translate(0.5 0.5)"/><path id="Combined-Shape-4" class="cls-2" d="M1592.34,907.67a351.88,351.88,0,0,1-258.77,258.76A354.13,354.13,0,0,1,1592.34,907.67Z" transform="translate(0.5 0.5)"/></g></g></svg>