<svg xmlns="http://www.w3.org/2000/svg" xmlns:xlink="http://www.w3.org/1999/xlink" viewBox="0 0 2501.01 2501.01"><defs><style>.cls-1{stroke:#000;stroke-miterlimit:10;fill:url(#linear-gradient);}.cls-2{fill:#fff;}</style><linearGradient id="linear-gradient" x1="2192.26" y1="2700.69" x2="308.75" y2="-199.68" gradientUnits="userSpaceOnUse"><stop offset="0" stop-color="#7928ca"/><stop offset="1" stop-color="#ff0080"/></linearGradient></defs><g id="Layer_2" data-name="Layer 2"><rect class="cls-1" x="0.5" y="0.5" width="2500.01" height="2500.01"/></g><g id="Layer_1" data-name="Layer 1"><path class="cls-2" d="M707.12,1722.12q-156.06,0-255.73-73.45Q353,1573.92,353,1436.22q0-28.85,6.55-70.82,17.06-94.41,48.53-226.87,89.17-360.64,460.31-360.65,101,0,181,34.1,80,32.78,125.9,99.67,45.9,65.57,45.9,157.37,0,27.54-6.56,69.51-19.67,116.71-47.21,226.87-45.9,179.67-158.68,268.85Q896,1722.12,707.12,1722.12Zm18.36-188.85q73.46,0,124.59-43.28,52.47-43.27,74.75-132.45,30.16-123.29,45.91-215.08a301.29,301.29,0,0,0,5.24-56.4q0-119.32-124.58-119.34-73.46,0-125.91,43.28-51.13,43.29-73.43,132.46-23.61,87.87-47.21,215.08a279.28,279.28,0,0,0-5.25,55.07Q599.59,1533.27,725.48,1533.27Z" transform="translate(0.5 0.5)"/><path class="cls-2" d="M1281.42,1709q-14.42,0-22.29-9.19-6.57-10.48-3.94-23.6l181-852.44a37.54,37.54,0,0,1,14.43-23.61q11.81-9.17,24.92-9.18h348.84q145.58,0,233.43,60.33Q2147,911.65,2147,1025.74a313.86,313.86,0,0,1-7.87,68.19q-32.78,150.83-132.45,223Q1908.29,1389,1736.49,1389h-177l-60.33,287.21a37.54,37.54,0,0,1-14.42,23.6q-11.81,9.18-24.92,9.19Zm464.26-501q55.07,0,95.73-30.16,42-30.16,55.08-86.56a229.8,229.8,0,0,0,3.93-39.34q0-38-22.29-57.7-22.31-21-76.07-21H1644.69L1594.86,1208Z" transform="translate(0.5 0.5)"/></g></svg>