<svg xmlns="http://www.w3.org/2000/svg" xmlns:xlink="http://www.w3.org/1999/xlink" viewBox="0 0 2501.01 2501.01"><defs><style>.cls-1{stroke:#000;stroke-miterlimit:10;fill:url(#linear-gradient);}.cls-2{fill:#fff;}</style><linearGradient id="linear-gradient" x1="2192.26" y1="2700.69" x2="308.75" y2="-199.68" gradientUnits="userSpaceOnUse"><stop offset="0" stop-color="#7928ca"/><stop offset="1" stop-color="#ff0080"/></linearGradient></defs><g id="Layer_2" data-name="Layer 2"><rect class="cls-1" x="0.5" y="0.5" width="2500.01" height="2500.01"/></g><g id="Layer_1" data-name="Layer 1"><path class="cls-2" d="M1625,1000.67c-26.65-15.23-60.91-15.23-91.36,0l-213.17,125.61-144.65,79.94L966.41,1331.84c-26.65,15.23-60.91,15.23-91.36,0l-163.68-99c-26.65-15.23-45.68-45.68-45.68-79.94V962.6c0-30.45,15.22-60.91,45.68-79.94l163.68-95.17c26.65-15.22,60.91-15.22,91.36,0l163.69,99c26.64,15.22,45.68,45.68,45.68,79.94V1092l144.65-83.74V878.85c0-30.45-15.23-60.9-45.68-79.94L970.22,620c-26.65-15.22-60.91-15.22-91.36,0L566.71,802.72C536.26,818,521,848.4,521,878.85v357.83c0,30.45,15.23,60.9,45.68,79.94l308.34,178.91c26.65,15.22,60.91,15.22,91.36,0l209.37-121.81L1320.43,1290l209.36-121.81c26.65-15.23,60.91-15.23,91.36,0l163.69,95.16c26.64,15.23,45.68,45.68,45.68,79.94v190.33c0,30.46-15.23,60.91-45.68,79.94L1625,1708.7c-26.65,15.23-60.91,15.23-91.36,0l-163.69-95.17c-26.64-15.22-45.68-45.68-45.68-79.94V1411.78l-144.65,83.75v125.62c0,30.45,15.23,60.9,45.68,79.94L1533.6,1880c26.65,15.22,60.91,15.22,91.36,0l308.34-178.91c26.64-15.23,45.68-45.68,45.68-79.94V1259.52c0-30.46-15.23-60.91-45.68-79.94Z" transform="translate(0.5 0.5)"/></g></svg>